<?xml version="1.0" encoding="utf-8"?>
<!-- Generator: Adobe Illustrator 25.0.1, SVG Export Plug-In . SVG Version: 6.00 Build 0)  -->
<svg version="1.1" id="Layer_1" xmlns="http://www.w3.org/2000/svg" xmlns:xlink="http://www.w3.org/1999/xlink" x="0px" y="0px"
	 viewBox="0 0 200 78" style="enable-background:new 0 0 200 78;" xml:space="preserve">
<style type="text/css">
	.st0{fill:none;}
</style>
<g id="Layer_2_1_">
	<g id="Layer_1-2">
		<rect y="0" class="st0" width="200" height="78"/>
		<path d="M141.8,29.3v10.8h-27.7c-0.3,0-0.6-0.1-0.8-0.4l-8.1-10.4l-0.1-0.1v10.9H74.3c-0.3,0-0.5-0.1-0.6-0.4
			c-0.4-0.9-0.8-1.8-1.2-2.7c-0.1-0.2-0.3-0.4-0.5-0.3c-2.3,0-4.6,0-6.9,0c-0.2,0-0.4,0.1-0.5,0.3c-0.4,0.9-0.8,1.9-1.2,2.8
			c-0.1,0.2-0.2,0.3-0.4,0.3H43.5c-0.2,0-0.4-0.1-0.5-0.3c-1-1.5-2.1-3-3.2-4.5c-0.1-0.2-0.3-0.3-0.6-0.3c-1,0-2,0-3,0v5h-0.4h-6.5
			c-0.2,0-0.4-0.1-0.5-0.3c-0.4-0.9-0.8-1.8-1.2-2.8c-0.1-0.2-0.3-0.3-0.5-0.3c-2.3,0-4.6,0-6.9,0c-0.2,0-0.4,0.1-0.5,0.3
			c-0.4,1-0.8,1.9-1.2,2.8c-0.1,0.2-0.2,0.3-0.4,0.3H1.3H1.2v-0.8h2.1v-14h0.3c1.9,0,3.8,0,5.8,0c0.9,0.1,1.8,0.2,2.7,0.5
			c1.4,0.4,2.4,1.6,2.6,3c0.3,1.2,0.3,2.4,0,3.5c-0.4,1.7-1.8,2.9-3.5,3.2c-1,0.2-2,0.3-3,0.3c-0.8,0-1.6,0-2.4,0v3.5h0.4h9.6
			c0.3,0,0.5-0.1,0.6-0.4c1.9-4.5,3.9-8.9,5.9-13.4c0.1-0.2,0.3-0.4,0.5-0.3c0.7,0,1.4,0,2,0c0.2,0,0.4,0.1,0.5,0.3
			c2,4.5,3.9,8.9,5.9,13.4c0.1,0.3,0.3,0.4,0.6,0.4c0.7,0,1.3,0,2.1,0v-14h0.4c2.1,0,4.2,0,6.2,0c0.9,0,1.7,0.2,2.5,0.4
			c1.5,0.4,2.6,1.7,2.7,3.3c0.1,0.9,0.1,1.8-0.1,2.6c-0.3,1.4-1.3,2.6-2.7,3l-0.4,0.1c0,0.1,0.1,0.2,0.1,0.2l2.9,4.1
			c0.1,0.1,0.2,0.2,0.3,0.2H50l-1.9-1.3l1.6-1.9c0.9,0.8,1.8,1.3,2.9,1.7c1,0.3,2,0.4,3,0.1c0.9-0.2,1.6-1.1,1.4-2.1
			c-0.1-0.6-0.4-1.1-1-1.2c-0.9-0.3-1.8-0.6-2.7-0.9c-1.1-0.2-2.2-0.7-3.1-1.3c-1.2-0.8-1.7-2.3-1.5-3.7c0.2-2.1,1.7-3.3,3.6-3.7
			c2.3-0.5,4.6,0,6.5,1.3l0.2,0.2l0.1,0.1l-1.3,1.8C57,27.8,56,27.4,55,27.2c-0.8-0.2-1.7-0.2-2.5,0.1c-0.7,0.2-1.1,0.8-1.2,1.4
			c-0.1,0.7,0.3,1.5,1,1.7c1,0.4,2,0.7,3,1c1.1,0.3,2.1,0.7,3.1,1.4c0.7,0.6,1.2,1.4,1.2,2.3c0.2,1.4-0.3,2.9-1.4,3.8
			c0,0-0.1,0.1-0.1,0.1h0.3c0.8,0,1.6,0,2.3,0c0.2,0,0.5-0.1,0.5-0.3c1.3-3,2.6-5.9,3.9-8.8c0.7-1.5,1.3-3,2-4.5
			c0.1-0.2,0.3-0.4,0.5-0.3c0.6,0,1.3,0,1.9,0c0.2,0,0.5,0.1,0.5,0.3c1.9,4.4,3.9,8.8,5.8,13.2c0.1,0.3,0.4,0.6,0.8,0.5
			c3.4,0,6.7,0,10.1,0h0.5c-0.2-0.1-0.2-0.2-0.3-0.2c-3.6-2.4-4.6-7.2-2.2-10.7c1.1-1.7,2.8-2.8,4.7-3.3c3.7-1,7.6,0.9,9.2,4.5
			c1.5,3.5,0.3,7.5-2.9,9.5c-0.1,0-0.1,0.1-0.3,0.2h6.9v-14c0.8,0,1.6,0,2.4,0c0.1,0,0.3,0.1,0.4,0.3c1.6,2,3.2,4.1,4.8,6.2
			c1.1,1.5,2.3,2.9,3.4,4.4c0.1,0.1,0.2,0.2,0.3,0.3V25.2h2.5v14h4.2v-14h2.5v12.5h6.8v1.5h2.6c0.1,0,0.2-0.1,0.2-0.2
			c0-0.1,0-0.2,0-0.3V25.2h2.5v14h4.2v-14c0.8,0,1.6,0,2.4,0c0.1,0,0.3,0.1,0.3,0.2c2.7,3.5,5.4,7,8.1,10.5l0.4,0.4V25.2h2.5v14h3.6
			c0.6,0,0.6,0,0.6-0.5V25.2h10.4v2.3h-7.9v4h7.1v2.2h-7.1v4h8.2v1.5h2.1v0.9h-19.3c-0.3,0-0.5-0.1-0.7-0.3l-7.8-10.1
			C142.1,29.5,142,29.4,141.8,29.3L141.8,29.3z M86.2,32.5c-0.1,2.9,2.2,5.4,5.1,5.5c0.6,0,1.2-0.1,1.8-0.3c2.6-0.9,4.1-3.5,3.6-6.2
			c-0.5-2.9-3.2-4.8-6.1-4.4C88,27.6,86.1,29.9,86.2,32.5L86.2,32.5z M5.7,33.4h3.4c0.3,0,0.6,0,0.9-0.1c1-0.1,1.8-0.8,2.1-1.7
			c0.1-0.3,0.1-0.5,0.2-0.8c0.2-1.8-0.4-3-2.3-3.3c-1.4-0.2-2.8-0.1-4.2-0.2c0,0,0,0-0.1,0.1L5.7,33.4z M36.3,32.9
			c1.6,0,3.1,0,4.7-0.2c1.1,0,2-0.8,2.1-1.9c0-0.3,0.1-0.5,0.1-0.8c0-1.5-0.5-2.3-2-2.5s-3.2-0.1-4.8-0.1c0,0,0,0-0.1,0.1L36.3,32.9
			z M68.7,28.2l-2.7,6.2h5.5L68.7,28.2z M23.7,28.2L21,34.4h5.5L23.7,28.2z"/>
		<path d="M179,45l11.1-11.1h-11.3c0.1-0.1,0.2-0.2,0.3-0.3c1.5-1.5,2.9-2.9,4.4-4.4c0.2-0.2,0.4-0.2,0.6-0.3h14.4h0.4v0.5
			c0,4.7,0,9.5,0,14.2c0,0.2-0.1,0.4-0.2,0.5c-1.5,1.6-3.1,3.1-4.6,4.6l-0.2,0.1V37.7l-11.2,11.2L179,45z"/>
		<path d="M101.9,53h1.3v0.2c-0.1,0-0.2,0.1-0.3,0.1H98V53c0.4-0.2,0.9,0,1.4-0.1c-0.7-0.5-1.1-1.3-1.1-2.1c0-0.6,0.2-1.1,0.7-1.5
			c1-0.8,2.5-0.7,3.4,0.3C103.2,50.6,103,52.1,101.9,53C101.9,53,101.9,53,101.9,53z M102.2,51c0.1-0.8-0.6-1.6-1.4-1.6
			c0,0-0.1,0-0.1,0c-0.9,0-1.6,0.7-1.6,1.6c0,0,0,0,0,0.1c0,0.9,0.7,1.6,1.6,1.6c0,0,0,0,0,0C101.5,52.6,102.2,51.9,102.2,51
			C102.2,51,102.2,51,102.2,51z"/>
		<path d="M111.4,53c-1.1-0.7-1.4-2.2-0.7-3.3c0.1-0.1,0.1-0.2,0.2-0.3c0.9-0.9,2.4-0.9,3.4,0c0.9,1,0.8,2.6-0.2,3.5
			c0,0-0.1,0.1-0.2,0.1h1.3v0.2H110V53c0.2,0,0.4,0,0.6-0.1S111.1,53,111.4,53z M114.2,51c0-0.9-0.6-1.6-1.5-1.6c0,0,0,0-0.1,0
			c-0.9,0-1.6,0.7-1.6,1.5c0,0,0,0.1,0,0.1c0,0.9,0.7,1.6,1.6,1.6C113.5,52.7,114.2,51.9,114.2,51C114.2,51,114.2,51,114.2,51z"/>
		<path d="M46.8,53h1.3v0.1c-0.1,0-0.1,0.1-0.2,0.1h-5c0,0,0,0-0.1,0c0.2-0.3,0.4-0.1,0.6-0.2c0.3,0,0.5,0,0.8,0
			c-1.2-1.2-1.4-2.6-0.5-3.5c0.9-0.9,2.4-1,3.3-0.1C48.2,50.3,48,51.6,46.8,53z M43.9,51c0,0.9,0.6,1.6,1.5,1.6c0,0,0,0,0,0
			c0.9,0,1.6-0.7,1.6-1.6c0,0,0,0,0,0c0-0.9-0.7-1.6-1.5-1.6c0,0,0,0,0,0c-0.8,0-1.6,0.6-1.6,1.5C43.9,50.9,43.9,50.9,43.9,51z"/>
		<path d="M86.9,48.8c0.8,0,1.6,0.1,2.4,0.2c0.9,0.1,1.6,0.9,1.5,1.8c0.1,0.9-0.3,1.7-1,2.2c0.4,0.1,0.9-0.1,1.3,0.1v0.1h-4.9V53
			l0.6-0.1L86.9,48.8z M87.6,52.6c0.5,0,1,0,1.4-0.1c0.6-0.1,1.1-0.7,1-1.4c0-0.8-0.3-1.4-1-1.5c-0.5-0.1-1-0.1-1.5-0.1L87.6,52.6z"
			/>
		<path d="M122,53l0.6-0.1v-4c0.8,0,1.7-0.1,2.5,0c0.6,0,1,0.4,1,1c0.2,0.6-0.1,1.3-0.7,1.6l-0.2,0.1c0.3,0.3,0.5,0.6,0.7,1
			c0.2,0.4,0.6,0.3,0.9,0.5v0.1c-0.4,0-0.8,0-1.3,0c-0.1,0-0.2-0.1-0.2-0.2c-0.3-0.3-0.5-0.7-0.8-1.1c-0.1-0.1-0.2-0.2-0.4-0.2
			c-0.9,0-0.8-0.1-0.8,0.7c0,0.2,0,0.5,0,0.7h-1.3L122,53z M123.3,49.4V51h0.4c0.3,0,0.6,0,0.9,0c0.4,0,0.7-0.3,0.7-0.7
			c0,0,0-0.1,0-0.1c0-0.5-0.2-0.8-0.7-0.8S123.8,49.5,123.3,49.4L123.3,49.4z"/>
		<path d="M69.7,51.6c0.3,0.4,0.5,0.8,0.8,1.2c0.2,0.2,0.5,0.2,0.8,0.3c-0.1,0-0.1,0.1-0.2,0.1c-0.3,0-0.7,0-1,0
			c-0.1,0-0.2-0.1-0.3-0.2c-0.2-0.2-0.4-0.5-0.5-0.7c-0.3-0.6-0.8-0.6-1.4-0.5v1.4h-1.4c0.1-0.4,0.4-0.1,0.6-0.3v-4.1
			c0.9,0,1.8,0,2.6,0.2c0.5,0.1,0.9,0.5,0.9,1c0.1,0.6-0.1,1.2-0.6,1.5C69.9,51.5,69.8,51.5,69.7,51.6z M67.8,51c0.5,0,0.9,0,1.4,0
			c0.4,0,0.7-0.3,0.7-0.7c0,0,0,0,0-0.1c0.1-0.4-0.2-0.7-0.5-0.8c0,0-0.1,0-0.1,0c-0.4,0-0.9,0-1.4,0V51z"/>
		<path d="M166.8,51.9v1h1.5c0.5,0,1,0,1.4,0.1c-1.4,0.2-2.9,0.2-4.3,0h0.6v-4.2c0.9-0.1,1.7,0,2.6,0.2c0.7,0.2,0.9,0.8,0.8,1.7
			c-0.1,0.6-0.5,1.1-1.1,1.2c-0.3,0-0.5,0.1-0.8,0.1S167.1,51.9,166.8,51.9z M166.8,49.4c0,0.6,0,1.1,0,1.6c0,0.1,0.1,0.2,0.2,0.2
			c0.4,0,0.8,0,1.1-0.1c0.4-0.1,0.6-0.3,0.6-0.8s-0.1-0.8-0.6-0.9S167.3,49.5,166.8,49.4L166.8,49.4z"/>
		<path d="M7,53.2c-0.4,0-0.8,0-1.2,0c-0.1,0-0.3-0.2-0.3-0.3c0-0.4-0.4-0.8-0.9-0.7c-0.1,0-0.1,0-0.2,0c-0.2,0-0.4,0-0.5,0
			c-0.7-0.1-1.1,0.1-1.3,0.8c0,0.1-0.1,0.2-0.2,0.2c-0.1,0-0.2,0-0.2,0h-1V53c0.1,0,0.2-0.1,0.3-0.1C1.8,53,2,52.8,2.1,52.5
			c0.5-1.1,1-2.3,1.5-3.4c0.1-0.3,0.3-0.3,0.5-0.3c0.2,0,0.4,0,0.5,0.3c0.5,1.2,1,2.3,1.5,3.5C6.3,52.8,6.4,53,6.7,53
			C6.9,53,7,53,7.1,53L7,53.2z M3.3,51.5h1.6l-0.8-1.8L3.3,51.5z"/>
		<path d="M158.1,50.7v0.6c-0.6,0-1.1,0-1.7,0c-0.4,0-0.5,0.1-0.5,0.5c0,0.8,0,0.8,0.8,0.8h1.5h0.1v0.3L159,53v0.1h-4.4
			c0.1-0.3,0.4-0.1,0.6-0.3v-4h3.1v0.6c-0.6,0-1.3,0-2,0c-0.3,0-0.4,0.1-0.4,0.4c0,0.3,0,0.5,0,0.8L158.1,50.7z"/>
		<path d="M54.8,53h1.4c-0.6-0.5-0.9-1.4-0.8-2.2c0-0.6,0-1.3,0-2h0.7c0,0.7,0,1.4,0,2.1c0,0.2,0,0.4,0,0.6c0,0.6,0.5,1,1.1,1
			c0.1,0,0.1,0,0.2,0c0.6-0.1,1-0.6,1-1.2c0-0.7,0-1.5,0-2.2v-0.3h0.7c0,1,0,1.9,0,2.8c-0.1,0.4-0.3,0.9-0.5,1.2l1.1,0.1v0.2H55
			C55,53.2,54.9,53.1,54.8,53z"/>
		<path d="M136.6,52.9c0.2,0.1,0.5-0.1,0.8,0.3h-4V53l0.7-0.1l-0.4-0.4l0.4-0.5c0.4,0.4,1,0.6,1.6,0.5c0.3,0,0.6-0.2,0.6-0.5
			s-0.2-0.5-0.5-0.6s-0.7-0.2-1.1-0.3c-0.6-0.1-1-0.7-0.9-1.3c0,0,0,0,0,0c0.1-0.6,0.6-1,1.1-1c0.7-0.1,1.4,0.1,1.9,0.5l-0.3,0.4
			c-0.5-0.1-1-0.2-1.5-0.2c-0.3,0-0.5,0.3-0.5,0.6c0,0.2,0.1,0.3,0.3,0.4c0.3,0.1,0.6,0.2,1,0.3c0.7,0.1,1.2,0.7,1.1,1.4
			C137,52.4,136.8,52.7,136.6,52.9z"/>
		<path d="M34.5,53h1.5v0.1c-0.1,0-0.1,0.1-0.2,0.1c-1.2,0-2.5,0-3.7-0.1c0.5-0.3,1-0.1,1.6-0.2c0-0.7,0.2-1.3-0.3-2
			s-0.9-1.4-1.3-2.1c0.6-0.2,0.7-0.1,1,0.3s0.6,1,1,1.6c0.3-0.5,0.6-1,0.9-1.5c0.1-0.4,0.5-0.6,1-0.5c0,0,0.1,0,0.1,0l-0.4,0.7
			c-0.2,0.3-0.4,0.7-0.7,1C34.5,51.2,34.3,52.1,34.5,53z"/>
		<path d="M144.1,53h1.5v-3.5h-1.3v-0.6h3.4v0.6h-1.3V53h1.5v0.1h-3.7L144.1,53z"/>
		<path d="M14.7,49.4h-1.3v-0.6h3.3v0.6h-1.3V53H17v0.2h-3.8c0,0-0.1-0.1-0.1-0.2h1.6V49.4z"/>
		<path d="M25.4,53c-0.5,0.2-1.2,0.2-1.7,0H25.4z"/>
		<path d="M79.5,53c-0.5,0.2-1.2,0.2-1.7,0H79.5z"/>
	</g>
</g>
</svg>
